# xmcd CD database file
#
# Track frame offsets:
#        150
#        12995
#        52855
#        83282
#        98095
#        136625
#        167187
#        199742
#        240287
#        272675
#        289765
#        314187
#
# Disc length: 4587 seconds
#
# Revision: 0
# Processed by: cddbd v1.5.2PL0 Copyright (c) Steve Scherf et al.
# Submitted via: CUERipper 2.1.5
#
DISCID=9511e90c
DTITLE=Ronnie Earl and The Broadcasters - Grateful Heart Blues and Ballads
DYEAR=1996
DGENRE=Blues
TTITLE0=Alabama
TTITLE1=Ice Cream Man
TTITLE2=Drown in My Own Tears
TTITLE3=Still Soul Searching
TTITLE4=Skyman
TTITLE5=Welcome Home
TTITLE6=For Abby
TTITLE7=Isabella
TTITLE8=Little Flower
TTITLE9=Soundcheck
TTITLE10=Mr. B.K.
TTITLE11=Song for a Sun
EXTD=
EXTT0=
EXTT1=
EXTT2=
EXTT3=
EXTT4=
EXTT5=
EXTT6=
EXTT7=
EXTT8=
EXTT9=
EXTT10=
EXTT11=
PLAYORDER=
